<?xml version="1.0" encoding="UTF-8" standalone="no"?>
<!DOCTYPE svg PUBLIC "-//W3C//DTD SVG 1.1//EN"
 "http://www.w3.org/Graphics/SVG/1.1/DTD/svg11.dtd">
<!-- Generated by graphviz version 2.28.0 (20111028.1807)
 -->
<!-- Title: G Pages: 1 -->
<svg width="476pt" height="706pt"
 viewBox="0.00 0.00 476.00 706.00" xmlns="http://www.w3.org/2000/svg" xmlns:xlink="http://www.w3.org/1999/xlink">
<g id="graph1" class="graph" transform="scale(1 1) rotate(0) translate(4 702)">
<title>G</title>
<polygon fill="white" stroke="white" points="-4,5 -4,-702 473,-702 473,5 -4,5"/>
<g id="graph2" class="cluster"><title>cluster_default</title>
<polyline fill="none" stroke="none" points="20,-98 448,-98 "/>
<path fill="none" stroke="none" d="M448,-98C454,-98 460,-104 460,-110"/>
<polyline fill="none" stroke="none" points="460,-110 460,-678 "/>
<path fill="none" stroke="none" d="M460,-678C460,-684 454,-690 448,-690"/>
<polyline fill="none" stroke="none" points="448,-690 20,-690 "/>
<path fill="none" stroke="none" d="M20,-690C14,-690 8,-684 8,-678"/>
<polyline fill="none" stroke="none" points="8,-678 8,-110 "/>
<path fill="none" stroke="none" d="M8,-110C8,-104 14,-98 20,-98"/>
</g>
<!-- \\vfsStream -->
<g id="node2" class="node"><title>\\vfsStream</title>
<a xlink:href="db_vfsStream.html" xlink:title="vfsStream" target="_parent">
<polygon fill="none" stroke="black" points="395.911,-682 320.089,-682 320.089,-646 395.911,-646 395.911,-682"/>
<text text-anchor="middle" x="358" y="-659.6" font-family="Courier,monospace" font-size="11.00">vfsStream</text>
</a>
</g>
<!-- \\vfsStreamAbstractContent -->
<g id="node3" class="node"><title>\\vfsStreamAbstractContent</title>
<a xlink:href="db_vfsStreamAbstractContent.html" xlink:title="«abstract»&lt;br/&gt;vfsStreamAbstractContent" target="_parent">
<polygon fill="none" stroke="black" points="191.5,-547 16.5,-547 16.5,-511 191.5,-511 191.5,-547"/>
<text text-anchor="start" x="71" y="-530.5" font-family="Courier,monospace" font-size="11.00">«abstract»</text>
<text text-anchor="start" x="25" y="-519.5" font-family="Courier,monospace" font-size="11.00">vfsStreamAbstractContent</text>
</a>
</g>
<!-- \\vfsStreamContainer -->
<g id="node4" class="node"><title>\\vfsStreamContainer</title>
<a xlink:href="db_vfsStreamContainer.html" xlink:title="vfsStreamContainer" target="_parent">
<polygon fill="none" stroke="black" points="425.319,-250 290.681,-250 290.681,-214 425.319,-214 425.319,-250"/>
<text text-anchor="middle" x="358" y="-227.6" font-family="Courier,monospace" font-size="11.00">vfsStreamContainer</text>
</a>
</g>
<!-- \\IteratorAggregate -->
<g id="node16" class="node"><title>\\IteratorAggregate</title>
<ellipse fill="none" stroke="black" cx="104" cy="-72" rx="82.2018" ry="18"/>
<text text-anchor="middle" x="104" y="-66.4" font-family="Times,serif" font-size="14.00" fill="gray">\IteratorAggregate</text>
</g>
<!-- \\vfsStreamContainer&#45;&gt;\\IteratorAggregate -->
<g id="edge3" class="edge"><title>\\vfsStreamContainer&#45;&gt;\\IteratorAggregate</title>
<path fill="none" stroke="black" d="M290.205,-218.966C280.882,-215.381 271.827,-210.815 264,-205 216.798,-169.932 239.806,-128.24 192,-94 188.265,-91.3253 184.237,-88.9749 180.032,-86.9095"/>
<polygon fill="none" stroke="black" points="181.158,-83.5832 170.59,-82.8282 178.381,-90.0087 181.158,-83.5832"/>
</g>
<!-- \\vfsStreamContainerIterator -->
<g id="node5" class="node"><title>\\vfsStreamContainerIterator</title>
<a xlink:href="db_vfsStreamContainerIterator.html" xlink:title="vfsStreamContainerIterator" target="_parent">
<polygon fill="none" stroke="black" points="451.628,-574 264.372,-574 264.372,-538 451.628,-538 451.628,-574"/>
<text text-anchor="middle" x="358" y="-551.6" font-family="Courier,monospace" font-size="11.00">vfsStreamContainerIterator</text>
</a>
</g>
<!-- \\vfsStreamContent -->
<g id="node6" class="node"><title>\\vfsStreamContent</title>
<a xlink:href="db_vfsStreamContent.html" xlink:title="vfsStreamContent" target="_parent">
<polygon fill="none" stroke="black" points="418.618,-520 297.382,-520 297.382,-484 418.618,-484 418.618,-520"/>
<text text-anchor="middle" x="358" y="-497.6" font-family="Courier,monospace" font-size="11.00">vfsStreamContent</text>
</a>
</g>
<!-- \\vfsStreamDirectory -->
<g id="node7" class="node"><title>\\vfsStreamDirectory</title>
<a xlink:href="db_vfsStreamDirectory.html" xlink:title="vfsStreamDirectory" target="_parent">
<polygon fill="none" stroke="black" points="425.319,-466 290.681,-466 290.681,-430 425.319,-430 425.319,-466"/>
<text text-anchor="middle" x="358" y="-443.6" font-family="Courier,monospace" font-size="11.00">vfsStreamDirectory</text>
</a>
</g>
<!-- \\vfsStreamDirectory&#45;&gt;\\vfsStreamAbstractContent -->
<g id="edge5" class="edge"><title>\\vfsStreamDirectory&#45;&gt;\\vfsStreamAbstractContent</title>
<path fill="none" stroke="black" d="M293.351,-466.067C283.502,-468.982 273.462,-472.021 264,-475 231.522,-485.224 195.583,-497.359 166.101,-507.533"/>
<polygon fill="none" stroke="black" points="164.671,-504.325 156.365,-510.903 166.96,-510.94 164.671,-504.325"/>
</g>
<!-- \\vfsStreamException -->
<g id="node8" class="node"><title>\\vfsStreamException</title>
<a xlink:href="db_vfsStreamException.html" xlink:title="vfsStreamException" target="_parent">
<polygon fill="none" stroke="black" points="425.319,-196 290.681,-196 290.681,-160 425.319,-160 425.319,-196"/>
<text text-anchor="middle" x="358" y="-173.6" font-family="Courier,monospace" font-size="11.00">vfsStreamException</text>
</a>
</g>
<!-- \\Exception -->
<g id="node19" class="node"><title>\\Exception</title>
<ellipse fill="none" stroke="black" cx="104" cy="-18" rx="52.7417" ry="18"/>
<text text-anchor="middle" x="104" y="-12.4" font-family="Times,serif" font-size="14.00" fill="gray">\Exception</text>
</g>
<!-- \\vfsStreamException&#45;&gt;\\Exception -->
<g id="edge7" class="edge"><title>\\vfsStreamException&#45;&gt;\\Exception</title>
<path fill="none" stroke="black" d="M290.315,-164.816C280.977,-161.252 271.889,-156.732 264,-151 217.926,-117.524 237.764,-78.8981 192,-45 182.859,-38.2291 171.986,-33.1316 161.077,-29.3016"/>
<polygon fill="none" stroke="black" points="162.114,-25.9586 151.523,-26.2519 159.985,-32.6271 162.114,-25.9586"/>
</g>
<!-- \\vfsStreamFile -->
<g id="node9" class="node"><title>\\vfsStreamFile</title>
<a xlink:href="db_vfsStreamFile.html" xlink:title="vfsStreamFile" target="_parent">
<polygon fill="none" stroke="black" points="408.814,-628 307.186,-628 307.186,-592 408.814,-592 408.814,-628"/>
<text text-anchor="middle" x="358" y="-605.6" font-family="Courier,monospace" font-size="11.00">vfsStreamFile</text>
</a>
</g>
<!-- \\vfsStreamFile&#45;&gt;\\vfsStreamAbstractContent -->
<g id="edge9" class="edge"><title>\\vfsStreamFile&#45;&gt;\\vfsStreamAbstractContent</title>
<path fill="none" stroke="black" d="M307.163,-595.978C293.162,-591.917 277.952,-587.392 264,-583 231.522,-572.776 195.583,-560.641 166.101,-550.467"/>
<polygon fill="none" stroke="black" points="166.96,-547.06 156.365,-547.097 164.671,-553.675 166.96,-547.06"/>
</g>
<!-- \\vfsStreamWrapper -->
<g id="node10" class="node"><title>\\vfsStreamWrapper</title>
<a xlink:href="db_vfsStreamWrapper.html" xlink:title="vfsStreamWrapper" target="_parent">
<polygon fill="none" stroke="black" points="418.618,-304 297.382,-304 297.382,-268 418.618,-268 418.618,-304"/>
<text text-anchor="middle" x="358" y="-281.6" font-family="Courier,monospace" font-size="11.00">vfsStreamWrapper</text>
</a>
</g>
<!-- \\vfsStreamAbstractVisitor -->
<g id="node11" class="node"><title>\\vfsStreamAbstractVisitor</title>
<a xlink:href="db_visitor_vfsStreamAbstractVisitor.html" xlink:title="«abstract»&lt;br/&gt;vfsStreamAbstractVisitor" target="_parent">
<polygon fill="none" stroke="black" points="191.5,-385 16.5,-385 16.5,-349 191.5,-349 191.5,-385"/>
<text text-anchor="start" x="71" y="-368.5" font-family="Courier,monospace" font-size="11.00">«abstract»</text>
<text text-anchor="start" x="25" y="-357.5" font-family="Courier,monospace" font-size="11.00">vfsStreamAbstractVisitor</text>
</a>
</g>
<!-- \\vfsStreamPrintVisitor -->
<g id="node12" class="node"><title>\\vfsStreamPrintVisitor</title>
<a xlink:href="db_visitor_vfsStreamPrintVisitor.html" xlink:title="vfsStreamPrintVisitor" target="_parent">
<polygon fill="none" stroke="black" points="435.123,-358 280.877,-358 280.877,-322 435.123,-322 435.123,-358"/>
<text text-anchor="middle" x="358" y="-335.6" font-family="Courier,monospace" font-size="11.00">vfsStreamPrintVisitor</text>
</a>
</g>
<!-- \\vfsStreamPrintVisitor&#45;&gt;\\vfsStreamAbstractVisitor -->
<g id="edge11" class="edge"><title>\\vfsStreamPrintVisitor&#45;&gt;\\vfsStreamAbstractVisitor</title>
<path fill="none" stroke="black" d="M280.708,-348.174C255.788,-350.844 227.779,-353.845 201.569,-356.653"/>
<polygon fill="none" stroke="black" points="201.192,-353.174 191.622,-357.719 201.938,-360.134 201.192,-353.174"/>
</g>
<!-- \\vfsStreamStructureVisitor -->
<g id="node13" class="node"><title>\\vfsStreamStructureVisitor</title>
<a xlink:href="db_visitor_vfsStreamStructureVisitor.html" xlink:title="vfsStreamStructureVisitor" target="_parent">
<polygon fill="none" stroke="black" points="448.527,-412 267.473,-412 267.473,-376 448.527,-376 448.527,-412"/>
<text text-anchor="middle" x="358" y="-389.6" font-family="Courier,monospace" font-size="11.00">vfsStreamStructureVisitor</text>
</a>
</g>
<!-- \\vfsStreamStructureVisitor&#45;&gt;\\vfsStreamAbstractVisitor -->
<g id="edge13" class="edge"><title>\\vfsStreamStructureVisitor&#45;&gt;\\vfsStreamAbstractVisitor</title>
<path fill="none" stroke="black" d="M267.445,-384.405C246.195,-382.128 223.431,-379.689 201.872,-377.379"/>
<polygon fill="none" stroke="black" points="202.046,-373.878 191.73,-376.292 201.3,-380.838 202.046,-373.878"/>
</g>
<!-- \\vfsStreamVisitor -->
<g id="node14" class="node"><title>\\vfsStreamVisitor</title>
<a xlink:href="db_visitor_vfsStreamVisitor.html" xlink:title="vfsStreamVisitor" target="_parent">
<polygon fill="none" stroke="black" points="418.618,-142 297.382,-142 297.382,-106 418.618,-106 418.618,-142"/>
<text text-anchor="middle" x="358" y="-119.6" font-family="Courier,monospace" font-size="11.00">vfsStreamVisitor</text>
</a>
</g>
</g>
</svg>
